<svg width="120" height="86" viewBox="0 0 120 86" fill="none" xmlns="http://www.w3.org/2000/svg">
<path fill-rule="evenodd" clip-rule="evenodd" d="M51.4889 30.7231C51.3462 29.5931 51.2727 28.4415 51.2727 27.2727C51.2727 12.2104 63.4831 0 78.5455 0C93.6078 0 105.818 12.2104 105.818 27.2727C105.818 30.351 105.308 33.3102 104.368 36.0704C104.845 36.0239 105.329 36 105.818 36C113.651 36 120 42.1052 120 49.6364C120 57.1675 113.651 63.2727 105.818 63.2727C98.52 63.2727 92.5095 57.972 91.7234 51.1561C90.3279 51.9278 88.8576 52.5807 87.326 53.1012C87.5307 54.4619 87.6367 55.855 87.6367 57.2728C87.6367 72.6363 75.1821 85.091 59.8185 85.091C46.4351 85.091 35.259 75.6398 32.6005 63.0476C32.5845 63.0499 32.5685 63.0522 32.5525 63.0545C32.6676 63.8378 32.7273 64.6392 32.7273 65.4545C32.7273 74.4919 25.401 81.8182 16.3636 81.8182C7.32625 81.8182 0 74.4919 0 65.4545C0 58.8238 3.94386 53.1142 9.6138 50.5435C8.34419 47.7765 7.63637 44.6982 7.63637 41.4545C7.63637 29.4047 17.4047 19.6364 29.4545 19.6364C37.9808 19.6364 45.3647 24.527 48.954 31.6561C49.7794 31.3056 50.6251 30.9939 51.4889 30.7231Z" fill="#E6EBF2"/>
<path d="M65.988 9.41287C67.6767 9.49968 69.2942 9.7455 70.7956 10.1485C74.1255 11.0358 76.1423 12.5235 77.2471 13.6146C78.0622 14.4206 78.6498 15.2338 79.0729 15.9676L84.3721 25.1505C83.949 24.4177 83.3614 23.6034 82.5463 22.7975C81.4415 21.7064 79.4247 20.2187 76.0948 19.3314C74.5934 18.9284 72.975 18.6826 71.2872 18.5967C69.5162 18.5071 67.6374 18.5875 65.702 18.8306C63.7629 19.0709 61.758 19.4803 59.7439 20.0451C57.7911 20.5888 55.8091 21.286 53.8508 22.1176C52.0167 22.8952 50.2056 23.7862 48.4693 24.7686C46.9259 25.6412 45.398 26.6062 43.9341 27.6379C41.7875 29.1548 39.768 30.8344 37.9294 32.6392C37.8709 32.6968 37.8143 32.7544 37.7558 32.8092C37.6534 32.9088 37.5548 33.0047 37.457 33.1043L36.7122 33.8802C36.6163 33.9807 36.5249 34.0748 36.4518 34.158L35.5462 35.1696L30.2461 25.9858L31.1526 24.9751C31.2248 24.8919 31.318 24.7978 31.413 24.6982L32.1578 23.9215C32.2547 23.8218 32.3543 23.725 32.4575 23.6263C32.5151 23.5705 32.5727 23.5148 32.6302 23.4563C34.4688 21.6525 36.4883 19.971 38.6349 18.4559C40.0988 17.4233 41.6258 16.4574 43.1701 15.5857C44.9064 14.6042 46.7175 13.7124 48.5516 12.9347C50.5099 12.1031 52.491 11.4059 54.4447 10.8613C56.4588 10.2974 58.4637 9.88897 60.4028 9.64681C62.3382 9.40373 64.217 9.32423 65.988 9.41287Z" fill="#CBD4DE"/>
<path d="M40.9306 36.6389L40.6308 36.797C40.5623 36.8317 40.491 36.8692 40.4097 36.9149L39.8879 37.211C39.5334 37.412 39.1304 37.6405 38.7219 37.8991L38.5117 38.0297C38.3198 38.1476 38.1224 38.271 37.9049 38.4099L37.0935 38.9545C36.8285 39.1291 36.5808 39.3082 36.3405 39.4818C36.325 39.4937 36.0371 39.7039 35.9649 39.7541C35.7273 39.9277 35.4815 40.105 35.1315 40.3837C34.8665 40.5893 34.5942 40.8023 34.3091 41.0316L33.3871 41.8102C33.2025 41.9628 33.038 42.1145 32.8918 42.2479C32.8635 42.2726 32.3334 42.7587 32.2832 42.8035C32.1726 42.9049 32.0593 43.01 31.9487 43.116L31.3876 43.6689C31.1217 43.9311 30.8485 44.2025 30.6027 44.4721L30.1741 44.9309L29.7318 45.417L28.9441 46.3372C28.8354 46.4633 28.7449 46.5785 28.5411 46.8371L28.0632 47.4475C27.9764 47.5608 27.8877 47.6723 27.7991 47.7938L27.471 48.2526L27.0708 48.8182C26.9849 48.9379 26.899 49.0631 26.8241 49.1828L26.6386 49.4688C26.3736 49.881 26.0976 50.3105 25.8691 50.7089C25.8298 50.7783 25.7915 50.8441 25.7595 50.9026L25.319 51.6848C25.2222 51.8676 25.1344 52.0421 25.0495 52.2121L24.9581 52.3949L24.6529 53.0126C24.5779 53.1588 24.5222 53.2904 24.3422 53.4485L19.043 44.2656C19.223 44.1075 19.2796 43.9759 19.3537 43.8297L19.658 43.212L19.7503 43.0292C19.8362 42.8592 19.923 42.6847 20.0198 42.5019L20.4612 41.7197C20.4923 41.6612 20.5307 41.5945 20.5699 41.5269C20.7984 41.1267 21.0744 40.6981 21.3403 40.285L21.5249 39.9999C21.5989 39.8793 21.6857 39.755 21.7716 39.6353L22.1719 39.0697L22.4999 38.6109C22.5886 38.4885 22.6772 38.3779 22.7649 38.2646L23.2419 37.6542C23.4457 37.3946 23.5362 37.2804 23.6449 37.1534L24.4326 36.235L24.8749 35.747L25.3035 35.2883C25.5493 35.0206 25.8225 34.7492 26.0885 34.4869L26.6495 33.9331C26.7601 33.8271 26.8734 33.722 26.984 33.6206C27.0342 33.5758 27.5652 33.0897 27.5926 33.0641C27.7388 32.9307 27.9042 32.7799 28.0879 32.6273L29.0108 31.8487C29.2959 31.6194 29.5673 31.4064 29.8314 31.2008C30.1823 30.9212 30.4281 30.7439 30.6666 30.5712C30.7379 30.52 31.0258 30.3099 31.0413 30.2998C31.2816 30.1253 31.5284 29.9462 31.7943 29.7716L32.6067 29.2279C32.8232 29.0872 33.0206 28.9657 33.2116 28.8478L33.4218 28.7162C33.8312 28.4576 34.2342 28.2291 34.5887 28.0281L35.1105 27.7311C35.1918 27.6863 35.2622 27.6479 35.3326 27.6132L35.6314 27.456L40.9306 36.6389Z" fill="#CBD4DE"/>
<path d="M89.1378 15.0655L89.008 14.5217C88.9605 14.317 88.9395 14.2284 88.9093 14.1443L88.5858 13.1656C88.4935 12.9253 88.3775 12.6566 88.255 12.3734C88.2066 12.2582 88.1563 12.1413 88.1042 12.0225C88.0439 11.8954 87.9717 11.7593 87.8959 11.6204C87.8575 11.55 87.5349 10.9478 87.5176 10.9158L86.9291 10.0093L86.4576 9.3916L86.1788 9.03521C86.1231 8.96393 86.0564 8.89357 85.9897 8.8223C85.9522 8.78209 85.5099 8.30325 85.4862 8.27675C85.4012 8.18354 85.3189 8.0949 85.2257 8.01448L84.4737 7.3209L83.6302 6.65199C83.5334 6.57341 83.4283 6.50304 83.3177 6.42811C83.2729 6.39795 82.7338 6.03517 82.7054 6.01689L82.4724 5.86063L81.692 5.41012C80.218 4.59043 78.5467 3.92792 76.7282 3.44086C74.7617 2.91542 72.6371 2.59193 70.4101 2.47862C68.0817 2.36165 65.608 2.46308 63.0576 2.78292C60.5017 3.10092 57.8571 3.6419 55.1979 4.38574C52.6283 5.104 50.0221 6.02146 47.4543 7.11073C45.05 8.12963 42.6714 9.30113 40.385 10.5933C38.339 11.7474 36.3249 13.0213 34.3995 14.381C32.4422 15.7517 30.8083 17.095 29.7483 17.9887L28.7979 18.8112C28.6846 18.9053 28.5877 18.9958 28.4918 19.0826L27.9526 19.5779C27.8631 19.661 27.768 19.7478 27.6757 19.8328C27.5039 19.9909 27.3394 20.1417 27.1832 20.2915C27.1411 20.3317 26.3516 21.1048 26.2785 21.1752C26.1414 21.3077 26.0108 21.4365 25.892 21.559L25.3711 22.0991L24.8831 22.6081C24.7643 22.7323 24.6601 22.8402 24.5797 22.9315L23.4941 24.1387L17.8587 22.5989C17.7737 22.7771 17.6741 22.9937 17.5571 23.2468L17.2391 23.9477C17.1495 24.1469 17.1093 24.2365 17.07 24.3288L16.8991 24.75L16.8078 24.983C16.5985 25.5103 16.3801 26.0559 16.1928 26.6489L16.1169 26.8737C16.0274 27.1506 15.9314 27.4366 15.8446 27.7236C15.7468 28.0845 15.6436 28.4619 15.5431 28.8466C15.4489 29.1829 15.3822 29.5174 15.3119 29.8729L15.2369 30.2457C15.1766 30.5509 15.1136 30.8653 15.0779 31.1705C14.8367 32.7084 14.7882 34.3185 14.9409 35.841C14.9893 36.2924 15.0213 36.6095 15.0861 36.9165L15.1894 37.4538L15.2662 37.834C15.3932 38.2891 15.4873 38.6153 15.5842 38.9342C15.6125 39.0411 15.6509 39.1398 15.6911 39.2449C15.7112 39.2933 15.7295 39.339 15.7478 39.3884L15.9241 39.8334L15.9762 39.965C16.0164 40.0637 16.0539 40.1605 16.0986 40.2556L16.3024 40.6595L16.5062 41.0533C16.604 41.2407 16.6497 41.3266 16.7018 41.4052L16.8297 41.6044C17.081 42.0019 17.3186 42.3756 17.5836 42.6891L18.0231 43.2337C18.1209 43.3443 18.2297 43.4557 18.3338 43.5617L18.4435 43.676L18.8236 44.0625C18.8931 44.1365 18.9698 44.2023 19.0439 44.2654C19.2239 44.1073 19.2805 43.9766 19.3546 43.8304L19.6589 43.2127L19.7512 43.0299C19.8371 42.859 19.9239 42.6854 20.0207 42.5017L20.4621 41.7195C20.4932 41.661 20.5316 41.5943 20.5708 41.5267C20.7993 41.1283 21.0762 40.6988 21.3412 40.2857L21.5258 39.9997C21.5998 39.8791 21.6866 39.7557 21.7725 39.636L22.1728 39.0704L22.5008 38.6116C22.5895 38.4892 22.6781 38.3786 22.7658 38.2653L23.2428 37.6549C23.4466 37.3953 23.5371 37.2811 23.6458 37.1541L24.4335 36.2348L24.8758 35.7477L25.3044 35.289C25.5502 35.0204 25.8234 34.7489 26.0893 34.4867L26.6504 33.9329C26.761 33.8269 26.8743 33.7218 26.9849 33.6213C27.0361 33.5765 27.5661 33.0904 27.5935 33.0639C27.7406 32.9314 27.9051 32.7806 28.0888 32.628L29.0108 31.8485C29.2968 31.6191 29.5682 31.4071 29.8332 31.2006C30.1832 30.9219 30.429 30.7437 30.6675 30.5719C30.7388 30.5198 31.0267 30.3106 31.0422 30.2996C31.2825 30.1251 31.5293 29.946 31.7952 29.7723L32.6076 29.2277C32.8241 29.0879 33.0215 28.9654 33.2125 28.8476L33.4227 28.716C33.8321 28.4574 34.2351 28.2289 34.5896 28.0288L35.1114 27.7309C35.1927 27.687 35.264 27.6486 35.3335 27.613L35.6323 27.4567L30.2463 25.9855L31.1528 24.9757C31.225 24.8926 31.3173 24.7975 31.4123 24.6979L32.158 23.9212C32.2548 23.8216 32.3535 23.7256 32.4568 23.626C32.5153 23.5712 32.5719 23.5146 32.6304 23.457C34.469 21.6522 36.4876 19.9708 38.6342 18.4557C40.099 17.4231 41.626 16.4572 43.1703 15.5854C44.9056 14.604 46.7177 13.713 48.5517 12.9344C50.5091 12.1038 52.4912 11.4056 54.444 10.861C56.458 10.2972 58.4629 9.88871 60.4021 9.64655C62.3384 9.40439 64.2172 9.32489 65.9882 9.41262C67.676 9.49943 69.2934 9.74616 70.7948 10.1482C74.1257 11.0365 76.1415 12.5241 77.2463 13.6143C78.7194 15.0728 79.4514 16.5522 79.8059 17.5382L80.0426 18.2574C80.0728 18.3305 80.0901 18.4127 80.1056 18.4858L80.1998 18.8815L89.1378 15.0655Z" fill="white"/>
<path d="M94.3062 23.7047C94.2577 23.4991 94.2367 23.4114 94.2066 23.3282L93.884 22.3486C93.7917 22.1083 93.6756 21.8396 93.5523 21.5554C93.5047 21.4403 93.4536 21.3242 93.4015 21.2063C93.3412 21.0793 93.2699 20.9422 93.1931 20.8033C93.1557 20.733 92.8322 20.1308 92.8157 20.0997L87.5156 10.9159C87.533 10.9479 87.8556 11.5501 87.8939 11.6205C87.9698 11.7594 88.042 11.8955 88.1023 12.0225C88.1544 12.1413 88.2056 12.2583 88.2531 12.3734C88.3764 12.6567 88.4925 12.9254 88.5839 13.1657L88.9074 14.1444C88.9375 14.2285 88.9585 14.3171 89.007 14.5218L89.1358 15.0655L94.4359 24.2484L94.3062 23.7047Z" fill="#D5DAE0"/>
<path d="M80.1992 18.8812L85.4984 28.0641L94.4364 24.248L89.1372 15.0651L80.1992 18.8812Z" fill="#CBD4DE"/>
<path d="M59.5494 58.01C46.4778 58.01 35.8809 51.9238 35.8809 44.4156V51.861C35.8809 59.3685 46.4778 65.4546 59.5494 65.4546C72.6216 65.4553 83.2185 59.3685 83.2185 51.861V44.4156C83.2185 51.9238 72.6216 58.01 59.5494 58.01" fill="#98ABBC"/>
<path d="M59.5494 57.5649C46.4778 57.5649 35.8809 51.4817 35.8809 43.977C35.8809 36.4731 46.4778 30.3896 59.5494 30.3896C72.6216 30.3896 83.2185 36.4731 83.2185 43.977C83.2185 51.4817 72.6216 57.5649 59.5494 57.5649" fill="#FAFCFF"/>
<path d="M77.9581 42.4919C77.9567 37.8446 75.4271 29.2486 71.441 22.4999H47.6577C43.6702 29.2486 41.1406 37.8453 41.1406 42.4933C41.1406 48.3959 49.3823 53.1818 59.5501 53.1818C69.7171 53.1818 77.9588 48.3959 77.9588 42.4933H77.9527L77.9581 42.4919" fill="#FF0000"/>
<path d="M59.5497 16.3636C52.7719 16.3636 47.2773 19.6996 47.2773 23.8146C47.2773 27.9303 52.7719 31.2662 59.5497 31.2662C66.3275 31.2662 71.8228 27.9303 71.8228 23.8153C71.8228 19.6996 66.3275 16.3636 59.5497 16.3636" fill="#E20404"/>
<path d="M16.8291 41.6042C17.0804 42.0017 17.3189 42.3755 17.583 42.6889L18.0225 43.2335C18.1203 43.3441 18.2291 43.4556 18.3332 43.5616L18.4429 43.6758L18.823 44.0624C18.8925 44.1364 18.9693 44.2022 19.0433 44.2652L24.3425 53.4481C24.2684 53.3851 24.1926 53.3193 24.1222 53.2462L23.7412 52.8578L23.6315 52.7445C23.5292 52.6394 23.4195 52.527 23.3208 52.4173L22.8822 51.8727C22.6172 51.5593 22.3796 51.1846 22.1283 50.7871L22.0004 50.5888L16.7012 41.405L16.8291 41.6042Z" fill="#D5DAE0"/>
<path d="M80.1602 51.6891L85.4593 60.872L90.8426 62.3433L85.5434 53.1604L80.1602 51.6891Z" fill="#D5DAE0"/>
<path d="M92.2978 55.0061L91.2122 56.2132C91.1327 56.3028 91.0322 56.4079 90.918 56.5276L89.9 57.5858C89.7784 57.7128 89.6459 57.8425 89.507 57.9769L88.6088 58.8541C88.4516 59.0067 88.2834 59.1593 88.1098 59.3193C88.0184 59.4024 87.928 59.4847 87.8384 59.5678L87.2965 60.0649C87.2033 60.1517 87.1064 60.2413 86.995 60.3354L86.0428 61.1578C84.9837 62.0497 83.3507 63.3949 81.3915 64.7665C79.4642 66.1253 77.452 67.4001 75.406 68.5533C73.1224 69.8427 70.7437 71.0151 68.3358 72.0368C65.769 73.1251 63.1628 74.0426 60.5931 74.7599C57.9358 75.5047 55.2912 76.0429 52.7343 76.3628C50.1857 76.6826 47.7111 76.7849 45.3809 76.668C43.1558 76.5556 41.0293 76.2312 39.0646 75.7057C37.2443 75.2187 35.5739 74.5543 34.099 73.7365L33.5726 73.4331L33.3213 73.286L32.6095 72.8089C32.5629 72.777 32.5163 72.7468 32.4687 72.7157C32.3591 72.6417 32.2558 72.5732 32.1608 72.4928L31.3173 71.8257L30.5644 71.1312C30.473 71.0535 30.3907 70.9649 30.3058 70.8708C30.282 70.8461 29.8388 70.3654 29.8013 70.3252C29.7337 70.253 29.6688 70.1808 29.6113 70.1105L29.3325 69.755L28.861 69.1354L28.2734 68.2307L33.5717 77.4136L34.1602 78.3192L34.6327 78.9379L34.9114 79.2933C34.968 79.3637 35.0329 79.4359 35.1005 79.5072C35.138 79.5474 35.5812 80.029 35.604 80.0536C35.6899 80.1478 35.7722 80.2355 35.8645 80.315L36.6165 81.0086L37.4609 81.6766C37.555 81.7561 37.6583 81.8255 37.7689 81.8986C37.8145 81.9306 37.8621 81.9599 37.9087 81.9918L38.6205 82.4698L38.8718 82.6169L39.3982 82.9194C40.8731 83.7363 42.5435 84.4016 44.3638 84.8886C46.3285 85.4141 48.455 85.7385 50.6801 85.8518C53.0103 85.9687 55.484 85.8655 58.0326 85.5456C60.5904 85.2267 63.235 84.6876 65.8923 83.9437C68.462 83.2264 71.0681 82.3089 73.636 81.2197C76.0429 80.198 78.4216 79.0265 80.7052 77.7362C82.7512 76.5821 84.7634 75.3082 86.6907 73.9485C88.6499 72.5777 90.2829 71.2326 91.342 70.3407L92.2942 69.5192C92.4056 69.4242 92.5025 69.3346 92.5957 69.2478L93.1367 68.7516C93.2272 68.6685 93.3176 68.5844 93.4099 68.5022C93.5826 68.3431 93.7499 68.1896 93.9079 68.037L94.8071 67.1598C94.9442 67.0245 95.0776 66.8957 95.2001 66.7687L96.2172 65.7105C96.3314 65.5907 96.431 65.4866 96.5114 65.3961L97.597 64.1899L92.2978 55.0061Z" fill="#CBD4DE"/>
<path d="M97.9324 56.5473C98.0183 56.3682 98.117 56.1526 98.233 55.9004L98.551 55.1995C98.6452 54.9911 98.6826 54.9061 98.7201 54.8175L98.891 54.3962L98.9805 54.1678C99.1916 53.6378 99.41 53.0904 99.5992 52.4955L99.6787 52.2579C99.7673 51.9865 99.8623 51.7051 99.9455 51.4245C100.045 51.0608 100.147 50.6825 100.248 50.2996C100.342 49.9633 100.407 49.6307 100.478 49.2771L100.552 48.9024C100.613 48.5981 100.677 48.281 100.712 47.9758C100.955 46.436 101.001 44.8259 100.85 43.3053C100.803 42.8539 100.77 42.5368 100.704 42.2307L100.601 41.6933L100.524 41.3132C100.4 40.8581 100.304 40.531 100.207 40.2121C100.178 40.1042 100.139 40.0055 100.097 39.8986C100.079 39.852 100.062 39.8054 100.042 39.7588L99.866 39.3138L99.8148 39.1849C99.7746 39.0853 99.7362 38.9857 99.6915 38.8916L99.4895 38.485L99.2382 38.0015C99.1889 37.9083 99.1423 37.8197 99.0893 37.7393L98.9604 37.5419C98.71 37.1453 98.4715 36.7706 98.2065 36.4572L97.7679 35.9126C97.671 35.802 97.5632 35.6923 97.4618 35.5873L97.3494 35.4721L96.9665 35.0837C96.897 35.0106 96.8203 34.9448 96.7444 34.8818C96.5653 35.0408 96.5087 35.1724 96.4356 35.3177L96.1313 35.9345L96.039 36.12C95.9558 36.2872 95.8672 36.4627 95.7703 36.6436L95.3289 37.4268C95.2969 37.4852 95.2595 37.552 95.2202 37.6196C94.989 38.0235 94.713 38.4521 94.4462 38.8678L94.2643 39.1475C94.1931 39.2653 94.1044 39.3905 94.0185 39.5093L93.6174 40.0777L93.2893 40.5365C93.2007 40.6571 93.112 40.7704 93.0234 40.8828L92.5473 41.4914C92.3481 41.7482 92.2567 41.8651 92.1452 41.9922L91.3575 42.9115L90.9143 43.3985L90.4876 43.8554C90.2427 44.125 89.9713 44.3946 89.7081 44.6532L89.1397 45.2143C89.0291 45.3221 88.9158 45.4263 88.8016 45.5286C88.7531 45.5743 88.225 46.0577 88.1975 46.0824C88.0586 46.2076 87.8868 46.3647 87.7013 46.5192L86.7693 47.3069C86.4979 47.5244 86.2292 47.7327 85.9678 47.9374C85.6078 48.2253 85.3602 48.4044 85.1198 48.5762L84.7543 48.8439C84.5112 49.0185 84.2618 49.1994 83.9958 49.3748L83.1835 49.9195C82.9669 50.0584 82.7658 50.1827 82.5749 50.3005L82.3683 50.4294C81.959 50.6889 81.5578 50.9183 81.2023 51.1193L80.6787 51.4154C80.5955 51.462 80.5215 51.5004 80.4484 51.5387L80.1606 51.6895L85.5438 53.1608L84.6382 54.1714C84.5651 54.2546 84.4756 54.3478 84.3796 54.4456L84.015 54.8257L83.634 55.2232C83.5353 55.3247 83.4366 55.4215 83.3333 55.5211C83.2776 55.576 83.2182 55.6326 83.1606 55.6911C81.3211 57.495 79.3016 59.1773 77.156 60.6906C75.692 61.7232 74.166 62.6891 72.6207 63.5609C70.8845 64.5423 69.0724 65.4342 67.2393 66.2118C65.2837 67.0416 63.3026 67.7388 61.3461 68.2853C59.3321 68.8491 57.3272 69.2585 55.3881 69.4997C53.4544 69.7419 51.5766 69.8205 49.8028 69.7336C48.1141 69.6468 46.4967 69.4001 44.9953 68.998C41.6672 68.1107 39.6504 66.623 38.5438 65.5319C37.0707 64.0744 36.3397 62.594 35.986 61.608L35.7484 60.8898C35.7173 60.8158 35.7009 60.7326 35.6854 60.6613L35.5903 60.2656L26.6523 64.0817C26.6597 64.1119 26.8004 64.7022 26.8113 64.7433C26.8305 64.8292 26.8525 64.9169 26.8826 65.0001L27.2043 65.9806C27.2947 66.2182 27.409 66.4832 27.5296 66.7638C27.5808 66.8807 27.6338 67.0004 27.6859 67.1238C27.748 67.2526 27.822 67.3906 27.897 67.5323L28.1857 68.0705L28.2725 68.2304L28.861 69.1351L29.3326 69.7547L29.6113 70.1111C29.6679 70.1814 29.7337 70.2527 29.8004 70.3249C29.8388 70.3651 30.282 70.8458 30.3048 70.8713C30.3898 70.9646 30.473 71.0532 30.5644 71.1318L31.3173 71.8263L32.1608 72.4924C32.2558 72.5729 32.3591 72.6414 32.4688 72.7154C32.5154 72.7474 32.5629 72.7776 32.6095 72.8095L33.3204 73.2856L33.5726 73.4337L34.099 73.7371C35.573 74.554 37.2434 75.2193 39.0646 75.7054C41.0293 76.2308 43.1558 76.5562 45.38 76.6695C47.7111 76.7846 50.1848 76.6823 52.7334 76.3633C55.2912 76.0435 57.9348 75.5044 60.5922 74.7605C63.1619 74.0432 65.768 73.1257 68.3359 72.0365C70.7428 71.0148 73.1224 69.8433 75.406 68.5539C77.4511 67.3998 79.4633 66.125 81.3915 64.7662C83.3507 63.3945 84.9837 62.0494 86.0419 61.1584L86.995 60.336C87.1055 60.241 87.2033 60.1514 87.2956 60.0655L87.8375 59.5684C87.9271 59.4853 88.0184 59.4021 88.1098 59.3189C88.2825 59.159 88.4507 59.0064 88.6088 58.8538L89.507 57.9765C89.645 57.8422 89.7784 57.7125 89.9 57.5864L90.918 56.5282C91.0322 56.4084 91.1318 56.3024 91.2122 56.2138L92.2969 55.0057L97.9324 56.5473Z" fill="white"/>
<path d="M104.441 47.0102C104.473 47.066 104.503 47.1236 104.535 47.1839L104.786 47.6691L104.989 48.0739C105.033 48.1699 105.071 48.2677 105.111 48.3673L105.163 48.4961L105.34 48.9411C105.358 48.9887 105.375 49.0353 105.394 49.0819C105.436 49.1888 105.474 49.2866 105.503 49.3953C105.6 49.7142 105.696 50.0404 105.821 50.4955L105.898 50.8757L106.001 51.413C106.066 51.72 106.099 52.0371 106.147 52.4885C106.298 54.0082 106.252 55.6184 106.01 57.159C105.973 57.4633 105.91 57.7804 105.85 58.0856L105.775 58.4603C105.703 58.813 105.639 59.1466 105.544 59.4819C105.445 59.8657 105.342 60.2432 105.242 60.6068C105.159 60.8883 105.065 61.1698 104.975 61.4412L104.896 61.6788V61.6797C104.707 62.2736 104.488 62.821 104.278 63.3501L104.188 63.5804L104.017 64.0017C103.98 64.0894 103.943 64.1744 103.848 64.3827L103.53 65.0827C103.413 65.3367 103.315 65.5506 103.229 65.7306L97.9297 56.5477C98.0156 56.3677 98.1143 56.1529 98.2312 55.9007L98.5493 55.1998C98.6434 54.9906 98.6808 54.9065 98.7174 54.8179L98.8892 54.3966L98.9787 54.1672C99.1889 53.6381 99.4082 53.0898 99.5965 52.4959L99.676 52.2574C99.7655 51.986 99.8597 51.7054 99.9437 51.424C100.043 51.0612 100.146 50.6829 100.245 50.3C100.339 49.9628 100.404 49.6301 100.476 49.2765L100.55 48.9018C100.611 48.5975 100.674 48.2814 100.71 47.9761C100.953 46.4355 100.999 44.8253 100.847 43.3057C100.801 42.8533 100.767 42.5362 100.701 42.231L100.599 41.6937L100.522 41.3135C100.397 40.8585 100.301 40.5304 100.204 40.2124C100.175 40.1037 100.137 40.0059 100.095 39.899C100.076 39.8524 100.06 39.8048 100.041 39.7582L99.8642 39.3132L99.8121 39.1853C99.7728 39.0848 99.7345 38.9861 99.6897 38.891L99.4868 38.4853L99.2355 38.0019C99.2045 37.9407 99.1734 37.8831 99.1414 37.8274L104.441 47.0102Z" fill="#CBD4DE"/>
<path d="M92.2949 55.0061L97.5941 64.1899L103.229 65.7306L97.9304 56.5477L92.2949 55.0061Z" fill="#98ABBC"/>
</svg>
